<svg height="1500" viewBox="0 0 1500 1500" width="1500" xmlns="http://www.w3.org/2000/svg"><g fill-rule="evenodd" transform="translate(427.79764 43.11025)"><path d="m153.42969 77.952736 767.14847 442.913374v531.49609l-767.14847-442.91342z"/><path d="m920.57816 1052.3622-460.28908 265.748-767.14847-442.91339 460.28908-265.74802z" fill="#f2f2f2"/><path d="m-306.85939 875.19681v35.43307l767.14847 442.91342v-35.4331z" fill="#e6e6e6"/><path d="m460.28908 1353.5433 460.28908-265.748v-35.4331l-460.28908 265.748z" fill="#ccc"/><path d="m920.57816 520.86611 30.68594-17.71654-767.14847-442.913369-30.68594 17.716535z" fill="#e6e6e6"/><path d="m153.42969 644.88186 705.7766 407.48034-245.48751 141.7323-705.776596-407.48036 245.487506-141.73229z" fill="#b3b3b3"/><path d="m153.42969 963.77948 153.4297 88.58272-122.74376 70.8661-153.429691-88.5827z" fill="#b3b3b3"/><path d="m184.11563 131.10234 705.77659 407.48031v460.6299l-705.77659-407.4803z" fill="#00a1e5"/><path d="m920.57816 520.86611 30.68594-17.71654v566.92913l-30.68594 17.7166z" fill="#ccc"/></g></svg>