<svg height="140" viewBox="0 0 140 140" width="140" xmlns="http://www.w3.org/2000/svg" xmlns:xlink="http://www.w3.org/1999/xlink"><filter id="a" color-interpolation-filters="sRGB" filterUnits="userSpaceOnUse" height="140" width="140" x="0" y="0"><feGaussianBlur stdDeviation="1.032072"/></filter><linearGradient id="b" gradientUnits="userSpaceOnUse" x1="106.141319" x2="74.311561" y1="27.790256" y2="89.822607"><stop offset=".00001" stop-color="#78ff78"/><stop offset="1" stop-color="#0f0" stop-opacity="0"/></linearGradient><linearGradient id="c" gradientUnits="userSpaceOnUse" x1="106.141319" x2="74.311561" y1="27.790256" y2="89.822607"><stop offset=".00001" stop-color="#fff"/><stop offset="1" stop-color="#fff" stop-opacity="0"/></linearGradient><filter id="d" color-interpolation-filters="sRGB" filterUnits="userSpaceOnUse" height="140" width="140" x="0" y="0"><feGaussianBlur stdDeviation="1.63823"/></filter><filter id="e" color-interpolation-filters="sRGB" filterUnits="userSpaceOnUse" height="140" width="140" x="0" y="0"><feGaussianBlur stdDeviation="1.164699"/></filter><filter id="f" color-interpolation-filters="sRGB" filterUnits="userSpaceOnUse" height="140" width="140" x="0" y="0"><feGaussianBlur stdDeviation="2.756362"/></filter><filter id="g" color-interpolation-filters="sRGB" filterUnits="userSpaceOnUse" height="140" width="140" x="0" y="0"><feGaussianBlur stdDeviation="5.344824"/></filter><path d="m119.848335 24.27964c25.664299 27.813896 23.932076 71.165352-3.869858 96.848213-27.801925 25.682862-71.154506 23.979859-96.850675-3.804596-25.696181-27.784469-24.013569-71.137878 3.758932-96.852562 27.772499-25.714683 71.126991-24.061302 96.855003 3.693688" opacity=".138672" stroke="#000" stroke-width=".212667"/><g stroke="#fff"><path d="m119.848335 24.27964c25.664299 27.813896 23.932076 71.165352-3.869858 96.848213-27.801925 25.682862-71.154506 23.979859-96.850675-3.804596-25.696181-27.784469-24.013569-71.137878 3.758932-96.852562 27.772499-25.714683 71.126991-24.061302 96.855003 3.693688" fill="none" stroke-width=".441882"/><path d="m85.848984 55.720818c8.322517 9.019584 7.76078 23.077751-1.254929 31.406288-9.015709 8.328529-23.074241 7.776275-31.407089-1.233773-8.332848-9.010047-7.787205-23.068847 1.21896-31.407692 9.006168-8.338851 23.065319-7.802688 31.408489 1.1978" fill="none" stroke-width="2.001393"/><path d="m103.455528 38.219009c17.541313 19.010529 16.357346 48.640839-2.645004 66.194832-19.002357 17.553993-48.633434 16.390007-66.196522-2.60041-17.563097-18.990418-16.413048-48.622063 2.569191-66.1978 18.982243-17.575745 48.614628-16.445671 66.199475 2.524597" fill="none" stroke-width="2.001365"/><path d="m119.613518 24.493294c25.536705 27.675606 23.813087 70.811523-3.850617 96.366691-27.663696 25.555176-70.800739 23.860642-96.36915-3.785675-25.568425-27.646331-23.894178-70.784195 3.740242-96.371025 27.634421-25.58683 70.773363-23.941673 96.373453 3.675324" fill="none" stroke-width="2.001339"/><path d="m68.164551 72.116501 50.764717-47.770554c.718925-.870208.474251-.438606 1.154961-.862846" fill="#00b801" fill-rule="evenodd" filter="url(#a)" stroke-width="5.018137"/></g><path d="m118.335045 25.03228-49.445404 46.708351 3.557045 69.669754 53.82151-32.260643 6.056908-11.925232 4.976043-18.704468.194321-12.106132-2.678161-15.759644-6.64531-15.259216-7.829971-10.519012-.603333-.652359" fill="url(#b)" fill-rule="evenodd" opacity=".184257"/><path d="m118.335045 25.03228-49.445404 46.708351 3.557045 69.669754 53.82151-32.260643 6.056908-11.925232 4.976043-18.704468.194321-12.106132-2.678161-15.759644-6.64531-15.259216-7.829971-10.519012-.603333-.652359" fill="url(#c)" fill-rule="evenodd" opacity=".257149"/><path d="m30.40048 98.940849c1.343066 1.486794 1.233597 3.779053-.245271 5.130806-1.478869 1.351746-3.771925 1.255722-5.132369-.215286-1.360372-1.470932-1.277376-3.764572.185641-5.133453 1.462948-1.368965 3.756761-1.299363 5.134302.155548" fill="#fff" filter="url(#d)"/><path d="m111.758286 48.929649c.921699 1.020333.846572 2.59343-.16832 3.521088-1.0149.927658-2.588539.861755-3.522156-.147736-.933578-1.009445-.876617-2.583488.127396-3.522911 1.003975-.939468 2.578132-.8917 3.523491.106751" fill="#fff" filter="url(#e)"/><path d="m78.377449 103.431549c1.836845 2.033417 1.687088 5.168465-.335533 7.017227-2.022621 1.848763-5.15876 1.717469-7.019371-.294357-1.86052-2.011719-1.746971-5.148651.253975-7.020851 2.000847-1.872307 5.138023-1.777153 7.022018.212654" fill="#fff" filter="url(#f)"/><path d="m49.274006 43.642075c3.56184 3.943016 3.271526 10.02214-.650463 13.607002-3.92199 3.584869-10.003224 3.3302-13.611153-.570938-3.60774-3.900933-3.387636-9.983719.492317-13.614037 3.879765-3.630524 9.963013-3.44593 13.61628.412522" fill="#fff" filter="url(#g)"/></svg>