<svg height="128" viewBox="0 0 128 128" width="128" xmlns="http://www.w3.org/2000/svg" xmlns:xlink="http://www.w3.org/1999/xlink"><radialGradient id="a" cx="63.997298" cy="110.869212" gradientUnits="userSpaceOnUse" r="60.03"><stop offset=".00001"/><stop offset=".902" stop-opacity=".731"/><stop offset="1" stop-opacity="0"/></radialGradient><filter id="b" color-interpolation-filters="sRGB" filterUnits="userSpaceOnUse" height="128" width="128" x="0" y="0"><feGaussianBlur stdDeviation="2.193043"/></filter><filter id="c" color-interpolation-filters="sRGB" filterUnits="userSpaceOnUse" height="128" width="128" x="0" y="0"><feGaussianBlur stdDeviation="2.08504"/></filter><linearGradient id="d"><stop offset=".00001" stop-color="#eee"/><stop offset="1" stop-color="#eee" stop-opacity="0"/></linearGradient><radialGradient id="e" cx="61.012049" cy="21.211927" gradientUnits="userSpaceOnUse" r="59.285643" xlink:href="#d"/><radialGradient id="f" cx="64.705737" cy="103.929391" gradientUnits="userSpaceOnUse" r="86.31896"><stop offset=".00001" stop-color="#eee"/><stop offset="1" stop-color="#d2d2d2"/></radialGradient><radialGradient id="g" cx="83.977485" cy="27.062595" gradientUnits="userSpaceOnUse" r="15.451219"><stop offset=".00001"/><stop offset="1" stop-opacity=".536"/></radialGradient><filter id="h" color-interpolation-filters="sRGB" filterUnits="userSpaceOnUse" height="128" width="128" x="0" y="0"><feGaussianBlur stdDeviation="1.610185"/></filter><linearGradient id="i" gradientUnits="userSpaceOnUse" x1="91.906398" x2="82.64559" y1="18.703494" y2="26.996382"><stop offset=".00001"/><stop offset="1" stop-color="#ddd" stop-opacity="0"/></linearGradient><linearGradient id="j" gradientUnits="userSpaceOnUse" x1="-1.026189" x2="-1.026189" y1="96.437303" y2="54.907303"><stop offset=".00001" stop-color="#bbb"/><stop offset="1" stop-color="#dcdcdc"/></linearGradient><linearGradient id="k" gradientUnits="userSpaceOnUse" x1="-1.101968" x2="-1.101968" y1="101.397267" y2="111.052066"><stop offset=".00001" stop-color="#242424"/><stop offset="1" stop-color="#535353"/></linearGradient><filter id="l" color-interpolation-filters="sRGB" filterUnits="userSpaceOnUse" height="128" width="128" x="0" y="0"><feGaussianBlur stdDeviation=".502634"/></filter><linearGradient id="m" gradientUnits="userSpaceOnUse" x1="-1.104314" x2="-1.104314" y1="89.157303" y2="54.907303"><stop offset=".00001" stop-color="#323232"/><stop offset="1" stop-color="#484848"/></linearGradient><linearGradient id="n" gradientUnits="userSpaceOnUse" x1="-2.416438" x2="-2.416438" y1="85.070183" y2="90.190183"><stop offset=".00001" stop-color="#a2a2a2"/><stop offset="1" stop-color="#f2f2f2"/></linearGradient><radialGradient id="o" cx="58.401988" cy="48.096887" gradientUnits="userSpaceOnUse" r="172.818134" xlink:href="#d"/><path d="m124.032074 110.86937c0 3.117111-26.877274 5.644042-60.032074 5.644042-33.154799 0-60.032074-2.526931-60.032074-5.644042 0-3.117127 26.877275-5.644043 60.032074-5.644043 33.1548 0 60.032074 2.526916 60.032074 5.644043z" fill="url(#a)" filter="url(#b)" opacity=".729"/><path d="m24.69256 23.472305v3.4375h1.03125v1.1875h-1.03125v59.8125h78.499998v-53.21875-6.5-.09375h-.875v-1.1875h.875v-.03125-1.34375-2.0625z" fill="#323232"/><path d="m28.95845 9.689957v95.345115h71.482613v-69.615066l-.477722-.505005c.169327.116669.335418.244148.502868.3535l-24.841652-25.553299c.045487.064316.080399.137612.125718.202004l-.201149-.227249z" filter="url(#c)" opacity=".809"/><path d="m25.65625 24.4375v1.5h.0625c.534422.001457.967295.434326.96875.96875v1.1875c-.001455.534424-.434328.967293-.96875.96875h-.0625v57.875h76.5625v-52.25-5.625c-.497513-.049614-.876106-.468773-.875-.96875v-1.1875c-.001106-.499977.377487-.919136.875-.96875v-.40625-1.09375z" fill="none" stroke="url(#e)" stroke-width="2"/><path d="m28.95845 8.988693v94.941384h71.482621v-69.320275l-24.891945-25.621109z" fill="url(#f)"/><path d="m77.374039 32.7808.114258-7.72712c.057411-6.106094-.741379-10.685058-3.42128-14.815193l2.177963-.028869 23.246033 23.701278c-3.438691-2.447761-8.132782-.732132-14.253357-.948982z" fill="url(#g)" filter="url(#h)" opacity=".505"/><path d="m80.309387 28.346626.10875-6.719116c.054649-5.309547-2.239174-9.014717-4.790009-12.606071l24.846664 25.44683c-3.273078-2.128456-6.854713-5.775596-12.680511-5.964157z" fill="#eee"/><path d="m80.309387 28.346626.10875-6.719116c.054649-5.309547-2.239174-9.014717-4.790009-12.606071l24.846664 25.44683c-3.273078-2.128456-6.854713-5.775596-12.680511-5.964157z" fill="url(#i)"/><path d="m14.598811 54.909805c-4.322862 0-7.8125 3.48964-7.8125 7.8125v33.71875h114.312497v-33.71875c0-4.32286-3.489639-7.8125-7.8125-7.8125z" fill="url(#j)"/><path d="m6.786311 96.441055v15.624993h114.312497v-15.624993z" fill="#555"/><path d="m6.786311 96.441055v2.242112h114.312497v-2.242112z" fill="#323232"/><path d="m22.304001 103.489998h83.279999c.938881 0 1.699997.761116 1.699997 1.700004v6.893998c0 .938881-.761116 1.699997-1.699997 1.699997h-83.279999c-.938885 0-1.700001-.761116-1.700001-1.699997v-6.893998c0-.938888.761116-1.700004 1.700001-1.700004z" fill="#bbb"/><path d="m28.732 101.400002h70.425997c1.481232 0 2.681999 1.200767 2.681999 2.681999v4.293998c0 1.481232-1.200767 2.682-2.681999 2.682h-70.425997c-1.481228 0-2.682001-1.200768-2.682001-2.682v-4.293998c0-1.481232 1.200773-2.681999 2.682001-2.681999z" fill="url(#k)"/><path d="m28.97381 54.78521v30.886345h71.281248c.065697 0 .122773-.024674.1875-.028183v-30.858162z" filter="url(#l)"/><path d="m24.645685 54.909805c-.051199.225823-.09375.44574-.09375.6875v30.4375c0 1.741074 1.415178 3.125 3.15625 3.125h72.468756c1.741058 0 3.15625-1.383926 3.15625-3.125v-30.4375c0-.24176-.042603-.461677-.093704-.6875h-78.59375z" fill="url(#m)"/><path d="m15.333562 85.065186c-1.405167 0-2.5625 1.157333-2.5625 2.5625 0 1.405166 1.157333 2.5625 2.5625 2.5625s2.562501-1.157334 2.562501-2.5625c0-1.405167-1.157334-2.5625-2.562501-2.5625z" fill="url(#n)"/><path d="m15.344562 85.620178c1.104571 0 2.000001.895432 2.000001 2 0 1.104569-.89543 2-2.000001 2-1.104569 0-2-.895431-2-2 0-1.104568.895431-2 2-2z" fill="#00a7b3"/><path d="m15.344562 86.45018c.646726 0 1.171.524277 1.171 1.171005 0 .646729-.524274 1.17099-1.171 1.17099-.646725 0-1.171-.524261-1.171-1.17099 0-.646728.524275-1.171005 1.171-1.171005z" fill="#00c4cc"/><path d="m15.333562 87.002686c-.34226 0-.59375.264968-.59375.625 0 .360015.233724.59375.59375.59375.360025 0 .625-.251496.625-.59375 0-.34227-.28274-.625-.625-.625z" fill="#a8dde0"/><path d="m14.59375 55.875c-3.793241 0-6.84375 3.050507-6.84375 6.84375v32.75h112.375v-32.75c0-3.793243-3.050507-6.84375-6.84375-6.84375z" fill="none" stroke="url(#o)" stroke-width="2"/></svg>